# xmcd
# 
# Track frame offsets:
#     150
#     12982
#     33625
#     52432
#     69610
#     84742
#     104015
#     117880
#     132837
#     153480
#     178882
#     196897
#     214377
#     231582
#     246142
#     261215
#     275657
#     288807
#     301872
#     313177
# 
# Disc length: 4410
# 
# Revision: 1
# Processed by: cddbd v1.5.2PL0 Copyright (c) Steve Scherf et al.
# Submitted via: fre:ac v1.0.31
# 
DISCID=3b113814
DTITLE=Various Artist - Line Dance Fever 8
DYEAR=1999
DGENRE=
TTITLE0=BR5-49 - Seven Nights to rock
TTITLE1=Tractors - Poor boy shuffle
TTITLE2=War - Cinco de Mayo
TTITLE3=The Blackout all Stars - I like it like that
TTITLE4=Carboo - A taste of Boogie
TTITLE5=Bellamy Brothers - Almost Jamaica
TTITLE6=Eddy Raven - Jambalaya
TTITLE7=Scooter Lee - Baby please come home
TTITLE8=Scott Rouse - Howdy
TTITLE9=Sean Kenny - 1999
TTITLE10=Dario G. - Carneval de Paris
TTITLE11=Bus Stop - Kung Fu Fighting
TTITLE12=Engelbert Humperdinck - Spanish Eyes
TTITLE13=Line Dance Heaven - Elvis Rumba
TTITLE14=Newton - All out of love
TTITLE15=Shane Mcanally - Say Anything
TTITLE16=Ken Mellons - Bundle of Nerves
TTITLE17=Sawyer Brown - Six days on the Road
TTITLE18=Junior Brown - Looking for love
TTITLE19=Sporran Brothers - Amazing Grace
EXTD=ST003
EXTT0=192 bpm
EXTT1=143 bpm
EXTT2=134bpm
EXTT3=128bpm
EXTT4=118bpm
EXTT5=109bpm
EXTT6=125bpm
EXTT7=126bpm
EXTT8=121bpm
EXTT9=124bpm
EXTT10=137bpm
EXTT11=118bpm
EXTT12=129bpm
EXTT13=117bpm
EXTT14=134bpm
EXTT15=140bpm
EXTT16=175bpm 
EXTT17=166bpm
EXTT18=149bpm
EXTT19=106bpm 
PLAYORDER=
